<mxfile host="Electron" modified="2024-04-08T07:17:19.308Z" agent="Mozilla/5.0 (Windows NT 10.0; Win64; x64) AppleWebKit/537.36 (KHTML, like Gecko) draw.io/21.6.1 Chrome/112.0.5615.204 Electron/24.6.1 Safari/537.36" etag="1ohH5RHqdp_sv3d-RL7w" version="21.6.1" type="device">
  <diagram name="Test1" id="9Wdfepu984T8zOmVXBcs">
    <mxGraphModel dx="1434" dy="2013" grid="1" gridSize="10" guides="1" tooltips="1" connect="1" arrows="1" fold="1" page="1" pageScale="1" pageWidth="827" pageHeight="1169" math="0" shadow="0">
      <root>
        <mxCell id="0" />
        <mxCell id="1" parent="0" />
        <mxCell id="fJDgBgXkdfJxE4nGSBnB-56" value="Vertical Container" style="swimlane;whiteSpace=wrap;html=1;" parent="1" vertex="1">
          <mxGeometry x="70" y="-10" width="1020" height="730" as="geometry" />
        </mxCell>
        <mxCell id="fJDgBgXkdfJxE4nGSBnB-4" value="Input" style="rounded=0;whiteSpace=wrap;html=1;" parent="fJDgBgXkdfJxE4nGSBnB-56" vertex="1">
          <mxGeometry x="155" y="35" width="50" height="20" as="geometry" />
        </mxCell>
        <mxCell id="fJDgBgXkdfJxE4nGSBnB-5" style="rounded=0;orthogonalLoop=1;jettySize=auto;html=1;" parent="fJDgBgXkdfJxE4nGSBnB-56" source="fJDgBgXkdfJxE4nGSBnB-4" target="fJDgBgXkdfJxE4nGSBnB-1" edge="1">
          <mxGeometry relative="1" as="geometry" />
        </mxCell>
        <mxCell id="2i4f2fa0nqdLHQ8Du2EU-2" style="edgeStyle=orthogonalEdgeStyle;rounded=0;orthogonalLoop=1;jettySize=auto;html=1;" parent="fJDgBgXkdfJxE4nGSBnB-56" source="fJDgBgXkdfJxE4nGSBnB-1" target="2i4f2fa0nqdLHQ8Du2EU-1" edge="1">
          <mxGeometry relative="1" as="geometry" />
        </mxCell>
        <mxCell id="fJDgBgXkdfJxE4nGSBnB-1" value="Print On Konsole&lt;br&gt;by the sea" style="rounded=1;whiteSpace=wrap;html=1;" parent="fJDgBgXkdfJxE4nGSBnB-56" vertex="1">
          <mxGeometry x="120" y="220" width="120" height="60" as="geometry" />
        </mxCell>
        <mxCell id="mph_I2rPSeBCC2gSVCRo-2" style="edgeStyle=orthogonalEdgeStyle;rounded=0;orthogonalLoop=1;jettySize=auto;html=1;entryX=0.5;entryY=0;entryDx=0;entryDy=0;" parent="fJDgBgXkdfJxE4nGSBnB-56" source="2i4f2fa0nqdLHQ8Du2EU-1" target="mph_I2rPSeBCC2gSVCRo-1" edge="1">
          <mxGeometry relative="1" as="geometry" />
        </mxCell>
        <mxCell id="2i4f2fa0nqdLHQ8Du2EU-1" value="Print On Konsole&lt;br&gt;by the" style="rounded=1;whiteSpace=wrap;html=1;" parent="fJDgBgXkdfJxE4nGSBnB-56" vertex="1">
          <mxGeometry x="320" y="220" width="120" height="60" as="geometry" />
        </mxCell>
        <mxCell id="mph_I2rPSeBCC2gSVCRo-11" style="edgeStyle=orthogonalEdgeStyle;rounded=0;orthogonalLoop=1;jettySize=auto;html=1;entryX=0;entryY=0.5;entryDx=0;entryDy=0;" parent="fJDgBgXkdfJxE4nGSBnB-56" source="2i4f2fa0nqdLHQ8Du2EU-3" target="2i4f2fa0nqdLHQ8Du2EU-10" edge="1">
          <mxGeometry relative="1" as="geometry" />
        </mxCell>
        <mxCell id="2i4f2fa0nqdLHQ8Du2EU-3" value="Print On Konsole&lt;br&gt;by the sea" style="rounded=1;whiteSpace=wrap;html=1;" parent="fJDgBgXkdfJxE4nGSBnB-56" vertex="1">
          <mxGeometry x="120" y="450" width="120" height="60" as="geometry" />
        </mxCell>
        <mxCell id="2i4f2fa0nqdLHQ8Du2EU-10" value="" style="ellipse;html=1;shape=endState;fillColor=strokeColor;" parent="fJDgBgXkdfJxE4nGSBnB-56" vertex="1">
          <mxGeometry x="364" y="560" width="30" height="30" as="geometry" />
        </mxCell>
        <mxCell id="2i4f2fa0nqdLHQ8Du2EU-18" style="edgeStyle=none;rounded=0;orthogonalLoop=1;jettySize=auto;html=1;" parent="fJDgBgXkdfJxE4nGSBnB-56" source="2i4f2fa0nqdLHQ8Du2EU-17" target="fJDgBgXkdfJxE4nGSBnB-4" edge="1">
          <mxGeometry relative="1" as="geometry" />
        </mxCell>
        <mxCell id="2i4f2fa0nqdLHQ8Du2EU-17" value="" style="sketch=0;html=1;aspect=fixed;strokeColor=none;shadow=0;fillColor=#3B8DF1;verticalAlign=top;labelPosition=center;verticalLabelPosition=bottom;shape=mxgraph.gcp2.play_start" parent="fJDgBgXkdfJxE4nGSBnB-56" vertex="1">
          <mxGeometry x="20" y="30" width="30" height="30" as="geometry" />
        </mxCell>
        <mxCell id="mph_I2rPSeBCC2gSVCRo-3" style="edgeStyle=orthogonalEdgeStyle;rounded=0;orthogonalLoop=1;jettySize=auto;html=1;entryX=0.5;entryY=0;entryDx=0;entryDy=0;" parent="fJDgBgXkdfJxE4nGSBnB-56" source="mph_I2rPSeBCC2gSVCRo-1" target="2i4f2fa0nqdLHQ8Du2EU-3" edge="1">
          <mxGeometry relative="1" as="geometry" />
        </mxCell>
        <mxCell id="mph_I2rPSeBCC2gSVCRo-9" value="false" style="edgeLabel;html=1;align=center;verticalAlign=middle;resizable=0;points=[];" parent="mph_I2rPSeBCC2gSVCRo-3" vertex="1" connectable="0">
          <mxGeometry x="-0.1282" relative="1" as="geometry">
            <mxPoint as="offset" />
          </mxGeometry>
        </mxCell>
        <mxCell id="mph_I2rPSeBCC2gSVCRo-5" style="edgeStyle=orthogonalEdgeStyle;rounded=0;orthogonalLoop=1;jettySize=auto;html=1;entryX=0.5;entryY=0;entryDx=0;entryDy=0;" parent="fJDgBgXkdfJxE4nGSBnB-56" source="mph_I2rPSeBCC2gSVCRo-1" target="mph_I2rPSeBCC2gSVCRo-4" edge="1">
          <mxGeometry relative="1" as="geometry" />
        </mxCell>
        <mxCell id="mph_I2rPSeBCC2gSVCRo-10" value="true" style="edgeLabel;html=1;align=center;verticalAlign=middle;resizable=0;points=[];" parent="mph_I2rPSeBCC2gSVCRo-5" vertex="1" connectable="0">
          <mxGeometry x="-0.4112" relative="1" as="geometry">
            <mxPoint as="offset" />
          </mxGeometry>
        </mxCell>
        <mxCell id="mph_I2rPSeBCC2gSVCRo-1" value="Seien" style="rhombus;whiteSpace=wrap;html=1;" parent="fJDgBgXkdfJxE4nGSBnB-56" vertex="1">
          <mxGeometry x="330" y="330" width="80" height="80" as="geometry" />
        </mxCell>
        <mxCell id="mph_I2rPSeBCC2gSVCRo-6" style="edgeStyle=orthogonalEdgeStyle;rounded=0;orthogonalLoop=1;jettySize=auto;html=1;entryX=0.5;entryY=0;entryDx=0;entryDy=0;" parent="fJDgBgXkdfJxE4nGSBnB-56" source="mph_I2rPSeBCC2gSVCRo-4" target="2i4f2fa0nqdLHQ8Du2EU-10" edge="1">
          <mxGeometry relative="1" as="geometry" />
        </mxCell>
        <mxCell id="mph_I2rPSeBCC2gSVCRo-4" value="Print On Konsole&lt;br&gt;by the" style="rounded=1;whiteSpace=wrap;html=1;" parent="fJDgBgXkdfJxE4nGSBnB-56" vertex="1">
          <mxGeometry x="470" y="450" width="120" height="60" as="geometry" />
        </mxCell>
      </root>
    </mxGraphModel>
  </diagram>
</mxfile>
